<svg width="84" height="81" viewBox="0 0 84 81" fill="none" xmlns="http://www.w3.org/2000/svg">
<rect x="0.661133" y="0.764404" width="82.7119" height="80" rx="40" fill="#DFBB7F"/>
<path d="M23.6875 40.2644H59.3125" stroke="white" stroke-width="4" stroke-linecap="round" stroke-linejoin="round"/>
<path d="M45.25 21.5144H37.75C37.2527 21.5144 36.7758 21.7119 36.4242 22.0636C36.0725 22.4152 35.875 22.8921 35.875 23.3894V30.8894C35.875 31.3867 36.0725 31.8636 36.4242 32.2152C36.7758 32.5669 37.2527 32.7644 37.75 32.7644H45.25C45.7473 32.7644 46.2242 32.5669 46.5758 32.2152C46.9275 31.8636 47.125 31.3867 47.125 30.8894V23.3894C47.125 22.8921 46.9275 22.4152 46.5758 22.0636C46.2242 21.7119 45.7473 21.5144 45.25 21.5144V21.5144Z" stroke="white" stroke-width="4" stroke-linejoin="round"/>
<path d="M34 47.7644H26.5C26.0027 47.7644 25.5258 47.9619 25.1742 48.3136C24.8225 48.6652 24.625 49.1421 24.625 49.6394V57.1394C24.625 57.6367 24.8225 58.1136 25.1742 58.4652C25.5258 58.8169 26.0027 59.0144 26.5 59.0144H34C34.4973 59.0144 34.9742 58.8169 35.3258 58.4652C35.6775 58.1136 35.875 57.6367 35.875 57.1394V49.6394C35.875 49.1421 35.6775 48.6652 35.3258 48.3136C34.9742 47.9619 34.4973 47.7644 34 47.7644V47.7644Z" stroke="white" stroke-width="4" stroke-linejoin="round"/>
<path d="M56.5 47.7644H49C48.5027 47.7644 48.0258 47.9619 47.6742 48.3136C47.3225 48.6652 47.125 49.1421 47.125 49.6394V57.1394C47.125 57.6367 47.3225 58.1136 47.6742 58.4652C48.0258 58.8169 48.5027 59.0144 49 59.0144H56.5C56.9973 59.0144 57.4742 58.8169 57.8258 58.4652C58.1775 58.1136 58.375 57.6367 58.375 57.1394V49.6394C58.375 49.1421 58.1775 48.6652 57.8258 48.3136C57.4742 47.9619 56.9973 47.7644 56.5 47.7644Z" stroke="white" stroke-width="4" stroke-linejoin="round"/>
<path d="M41.5 40.2644V32.7644" stroke="white" stroke-width="4" stroke-linecap="round" stroke-linejoin="round"/>
<path d="M52.75 47.7644V40.2644" stroke="white" stroke-width="4" stroke-linecap="round" stroke-linejoin="round"/>
<path d="M30.25 47.7644V40.2644" stroke="white" stroke-width="4" stroke-linecap="round" stroke-linejoin="round"/>
</svg>
