<svg width="25" height="25" viewBox="0 0 25 25" fill="none" xmlns="http://www.w3.org/2000/svg">
<circle cx="12.5" cy="12.5" r="12.5" fill="white" fill-opacity="0.3"/>
<path d="M14.5859 15.8958L14.8404 15.9296L15.0161 15.7425L16.1276 14.5593C16.1279 14.559 16.1282 14.5587 16.1285 14.5584C16.2116 14.4713 16.3128 14.4154 16.4183 14.3924C16.5234 14.3695 16.6328 14.3791 16.7346 14.4214C16.735 14.4216 16.7353 14.4217 16.7357 14.4219L18.0876 14.9965C18.088 14.9966 18.0883 14.9968 18.0887 14.997C18.1916 15.0417 18.2848 15.1199 18.3532 15.2269C18.4216 15.3341 18.4606 15.4633 18.4621 15.5984V18.2401C18.4612 18.3313 18.443 18.4207 18.4094 18.5026C18.3757 18.585 18.3274 18.6572 18.2692 18.7157C18.211 18.7741 18.1441 18.8176 18.0735 18.8452C18.0037 18.8726 17.9306 18.8844 17.858 18.8808C13.2799 18.5766 10.5588 16.3747 8.92083 13.8591C7.2681 11.3209 6.7107 8.4465 6.53307 6.84205C6.52332 6.74713 6.53255 6.65133 6.55973 6.56134C6.58702 6.47098 6.63137 6.38989 6.68816 6.32275C6.74487 6.2557 6.81239 6.20439 6.88506 6.17024C6.95759 6.13614 7.03465 6.11938 7.11149 6.11988L7.11149 6.11989H7.11475H9.51511C9.62211 6.12037 9.72947 6.15469 9.82351 6.22276L10.1125 5.82359L9.82351 6.22276C9.9182 6.2913 9.996 6.3919 10.0421 6.51503L10.0422 6.51524L10.5841 7.96005L10.5841 7.96006L10.5853 7.96329C10.6317 8.08425 10.6439 8.21861 10.6194 8.34844C10.5949 8.47804 10.5358 8.59316 10.4538 8.68091C10.4537 8.68101 10.4536 8.6811 10.4535 8.6812L9.34053 9.86601L9.17683 10.0403L9.2097 10.2771L9.70495 10.2084C9.2097 10.2771 9.20973 10.2773 9.20977 10.2776L9.20985 10.2782L9.21006 10.2797L9.21068 10.284L9.21271 10.2975C9.21443 10.3087 9.2169 10.3242 9.22021 10.3438C9.22683 10.3829 9.23683 10.4383 9.25097 10.5077C9.27923 10.6466 9.32417 10.8423 9.39198 11.0776C9.52723 11.5469 9.7556 12.1812 10.1293 12.8373C10.8798 14.1552 12.2337 15.5835 14.5859 15.8958Z" stroke="white" stroke-opacity="0.9"/>
</svg>
