<svg width="84" height="81" viewBox="0 0 84 81" fill="none" xmlns="http://www.w3.org/2000/svg">
<rect x="0.661133" y="0.764404" width="82.7119" height="80" rx="40" fill="#DFBB7F"/>
<path d="M60.2665 28.2479L54.5165 22.4979C54.383 22.3644 54.2245 22.2585 54.0501 22.1863C53.8757 22.114 53.6888 22.0768 53.5 22.0768C53.3112 22.0768 53.1243 22.114 52.9499 22.1863C52.7755 22.2585 52.617 22.3644 52.4835 22.4979L35.2335 39.7479C35.1 39.8814 34.9941 40.0399 34.9219 40.2143C34.8497 40.3887 34.8125 40.5756 34.8125 40.7644V46.5144C34.8125 46.8956 34.964 47.2613 35.2335 47.5308C35.5031 47.8004 35.8688 47.9519 36.25 47.9519H42C42.1888 47.9519 42.3757 47.9147 42.5501 47.8425C42.7245 47.7702 42.883 47.6644 43.0165 47.5309L60.2665 30.2809C60.4 30.1474 60.5059 29.9889 60.5781 29.8145C60.6504 29.6401 60.6875 29.4532 60.6875 29.2644C60.6875 29.0756 60.6504 28.8887 60.5781 28.7143C60.5059 28.5398 60.4 28.3814 60.2665 28.2479ZM41.4047 45.0769H37.6875V41.3599L49.1875 29.8599L52.9045 33.5769L41.4047 45.0769ZM54.9375 31.5439L51.2205 27.8269L53.5 25.5474L57.2172 29.2644L54.9375 31.5439ZM59.25 39.3269V55.1394C59.2491 55.9016 58.946 56.6324 58.407 57.1714C57.868 57.7103 57.1372 58.0135 56.375 58.0144H27.625C26.8628 58.0135 26.132 57.7103 25.593 57.1714C25.054 56.6324 24.7509 55.9016 24.75 55.1394V26.3894C24.7509 25.6271 25.054 24.8964 25.593 24.3574C26.132 23.8184 26.8628 23.5152 27.625 23.5144H43.4375C43.8187 23.5144 44.1844 23.6658 44.454 23.9354C44.7235 24.205 44.875 24.5706 44.875 24.9519C44.875 25.3331 44.7235 25.6988 44.454 25.9683C44.1844 26.2379 43.8187 26.3894 43.4375 26.3894H27.625V55.1394H56.375V39.3269C56.375 38.9456 56.5264 38.58 56.796 38.3104C57.0656 38.0408 57.4312 37.8894 57.8125 37.8894C58.1937 37.8894 58.5594 38.0408 58.829 38.3104C59.0985 38.58 59.25 38.9456 59.25 39.3269Z" fill="white"/>
</svg>
