<svg width="84" height="81" viewBox="0 0 84 81" fill="none" xmlns="http://www.w3.org/2000/svg">
<rect x="0.661133" y="0.764404" width="82.7119" height="80" rx="40" fill="#DFBB7F"/>
<path d="M55.5 27.2644H61.5V33.2644H55.5V27.2644Z" fill="white"/>
<path d="M55.5 36.2644H61.5V42.2644H55.5V36.2644Z" fill="white"/>
<path d="M46.5 27.2644H52.5V33.2644H46.5V27.2644Z" fill="white"/>
<path d="M46.5 36.2644H52.5V42.2644H46.5V36.2644Z" fill="white"/>
<path d="M42.75 55.7644C43.9926 55.7644 45 54.757 45 53.5144C45 52.2718 43.9926 51.2644 42.75 51.2644C41.5074 51.2644 40.5 52.2718 40.5 53.5144C40.5 54.757 41.5074 55.7644 42.75 55.7644Z" fill="white"/>
<path d="M52.5 61.7644H33C32.2046 61.7636 31.442 61.4473 30.8796 60.8848C30.3171 60.3224 30.0008 59.5598 30 58.7644V22.7644C30.0008 21.969 30.3171 21.2064 30.8796 20.644C31.442 20.0815 32.2046 19.7652 33 19.7644H52.5V22.7644H33V58.7644H52.5V46.7644H55.5V58.7644C55.4992 59.5598 55.1829 60.3224 54.6204 60.8848C54.058 61.4473 53.2954 61.7636 52.5 61.7644Z" fill="white"/>
</svg>
