<svg width="84" height="81" viewBox="0 0 84 81" fill="none" xmlns="http://www.w3.org/2000/svg">
<rect x="0.661133" y="0.764404" width="82.7119" height="80" rx="40" fill="#DFBB7F"/>
<path d="M45.375 29.6394H48.75V33.0144H45.375V29.6394Z" fill="white"/>
<path d="M35.25 29.6394H38.625V33.0144H35.25V29.6394Z" fill="white"/>
<path d="M58.875 46.5144H50.4375V43.1394H52.125C53.0198 43.1385 53.8778 42.7826 54.5105 42.1499C55.1432 41.5172 55.4991 40.6592 55.5 39.7644V33.0144H58.875V29.6394H55.5V26.2644C55.4991 25.3696 55.1432 24.5116 54.5105 23.8789C53.8778 23.2462 53.0198 22.8903 52.125 22.8894H48.75V16.1394H45.375V22.8894H38.625V16.1394H35.25V22.8894H31.875C30.9802 22.8903 30.1222 23.2462 29.4895 23.8789C28.8568 24.5116 28.5009 25.3696 28.5 26.2644V29.6394H25.125V33.0144H28.5V39.7644C28.5009 40.6592 28.8568 41.5172 29.4895 42.1499C30.1222 42.7826 30.9802 43.1385 31.875 43.1394H33.5625V46.5144H25.125C24.2302 46.5153 23.3722 46.8712 22.7395 47.5039C22.1068 48.1366 21.7509 48.9946 21.75 49.8894V63.3894H25.125V49.8894H58.875V63.3894H62.25V49.8894C62.2491 48.9946 61.8932 48.1366 61.2605 47.5039C60.6278 46.8712 59.7698 46.5153 58.875 46.5144ZM31.875 26.2644H52.125V39.7644H31.875V26.2644ZM36.9375 43.1394H47.0625V46.5144H36.9375V43.1394Z" fill="white"/>
</svg>
