<svg width="84" height="81" viewBox="0 0 84 81" fill="none" xmlns="http://www.w3.org/2000/svg">
<rect x="0.661133" y="0.764404" width="82.7119" height="80" rx="40" fill="#DFBB7F"/>
<path d="M36.9375 56.0144L35.25 62.7644L33 65.0144H51L48.75 62.7644L47.0625 56.0144H36.9375ZM21.75 47.0144H62.25H21.75ZM26.25 56.0144H57.75C58.9435 56.0144 60.0881 55.5403 60.932 54.6964C61.7759 53.8525 62.25 52.7079 62.25 51.5144V29.0144C62.25 27.8209 61.7759 26.6763 60.932 25.8324C60.0881 24.9885 58.9435 24.5144 57.75 24.5144H26.25C25.0565 24.5144 23.9119 24.9885 23.068 25.8324C22.2241 26.6763 21.75 27.8209 21.75 29.0144V51.5144C21.75 52.7079 22.2241 53.8525 23.068 54.6964C23.9119 55.5403 25.0565 56.0144 26.25 56.0144Z" stroke="white" stroke-width="3" stroke-linecap="round" stroke-linejoin="round"/>
<path fill-rule="evenodd" clip-rule="evenodd" d="M43.1933 33.5333C42.9853 33.5333 42.7859 33.593 42.6388 33.6994C42.4918 33.8058 42.4092 33.9501 42.4092 34.1005V38.6385C42.4092 38.789 42.4918 38.9333 42.6388 39.0396C42.7859 39.146 42.9853 39.2058 43.1933 39.2058H46.3296C46.5376 39.2058 46.737 39.146 46.8841 39.0396C47.0311 38.9333 47.1137 38.789 47.1137 38.6385V34.1005C47.1137 33.9501 47.0311 33.8058 46.8841 33.6994C46.737 33.593 46.5376 33.5333 46.3296 33.5333H43.1933ZM45.5455 34.6678H43.9774V38.0713H45.5455V34.6678Z" fill="white"/>
<path d="M36.9203 33.5333C36.7124 33.5333 36.5129 33.593 36.3659 33.6994C36.2188 33.8058 36.1362 33.9501 36.1362 34.1005C36.1362 34.251 36.2188 34.3952 36.3659 34.5016C36.5129 34.608 36.7124 34.6678 36.9203 34.6678H40.0567C40.2646 34.6678 40.4641 34.608 40.6111 34.5016C40.7582 34.3952 40.8408 34.251 40.8408 34.1005C40.8408 33.9501 40.7582 33.8058 40.6111 33.6994C40.4641 33.593 40.2646 33.5333 40.0567 33.5333H36.9203Z" fill="white"/>
<path d="M36.9203 35.8025C36.7124 35.8025 36.5129 35.8623 36.3659 35.9686C36.2188 36.075 36.1362 36.2193 36.1362 36.3697C36.1362 36.5202 36.2188 36.6645 36.3659 36.7708C36.5129 36.8772 36.7124 36.937 36.9203 36.937H40.0567C40.2646 36.937 40.4641 36.8772 40.6111 36.7708C40.7582 36.6645 40.8408 36.5202 40.8408 36.3697C40.8408 36.2193 40.7582 36.075 40.6111 35.9686C40.4641 35.8623 40.2646 35.8025 40.0567 35.8025H36.9203Z" fill="white"/>
<path d="M36.1362 38.6386C36.1362 38.4882 36.2188 38.3439 36.3659 38.2375C36.5129 38.1311 36.7124 38.0714 36.9203 38.0714H40.0567C40.2646 38.0714 40.4641 38.1311 40.6111 38.2375C40.7582 38.3439 40.8408 38.4882 40.8408 38.6386C40.8408 38.789 40.7582 38.9333 40.6111 39.0397C40.4641 39.1461 40.2646 39.2059 40.0567 39.2059H36.9203C36.7124 39.2059 36.5129 39.1461 36.3659 39.0397C36.2188 38.9333 36.1362 38.789 36.1362 38.6386Z" fill="white"/>
<path fill-rule="evenodd" clip-rule="evenodd" d="M35.3523 31.2644C34.7284 31.2644 34.1301 31.4437 33.689 31.7628C33.2478 32.082 33 32.5148 33 32.9662V39.7732C33 40.2245 33.2478 40.6574 33.689 40.9765C34.1301 41.2956 34.7284 41.4749 35.3523 41.4749H47.8977C48.5216 41.4749 49.1199 41.2956 49.561 40.9765C50.0022 40.6574 50.25 40.2245 50.25 39.7732V32.9662C50.25 32.5148 50.0022 32.082 49.561 31.7628C49.1199 31.4437 48.5216 31.2644 47.8977 31.2644H35.3523ZM47.8977 32.3989H35.3523C35.1443 32.3989 34.9449 32.4587 34.7978 32.5651C34.6508 32.6714 34.5682 32.8157 34.5682 32.9662V39.7732C34.5682 39.9236 34.6508 40.0679 34.7978 40.1743C34.9449 40.2807 35.1443 40.3404 35.3523 40.3404H47.8977C48.1057 40.3404 48.3051 40.2807 48.4522 40.1743C48.5992 40.0679 48.6818 39.9236 48.6818 39.7732V32.9662C48.6818 32.8157 48.5992 32.6714 48.4522 32.5651C48.3051 32.4587 48.1057 32.3989 47.8977 32.3989Z" fill="white"/>
</svg>
