<svg width="84" height="81" viewBox="0 0 84 81" fill="none" xmlns="http://www.w3.org/2000/svg">
<rect x="0.661133" y="0.764404" width="82.7119" height="80" rx="40" fill="#DFBB7F"/>
<path fill-rule="evenodd" clip-rule="evenodd" d="M45.976 31.6937C45.4593 31.6937 44.9638 31.8937 44.5984 32.2499C44.2331 32.606 44.0278 33.089 44.0278 33.5927V48.7846C44.0278 49.2882 44.2331 49.7712 44.5984 50.1274C44.9638 50.4835 45.4593 50.6836 45.976 50.6836H53.7687C54.2854 50.6836 54.7809 50.4835 55.1463 50.1274C55.5116 49.7712 55.7169 49.2882 55.7169 48.7846V33.5927C55.7169 33.089 55.5116 32.606 55.1463 32.2499C54.7809 31.8937 54.2854 31.6937 53.7687 31.6937H45.976ZM51.8205 35.4916H47.9242V46.8856H51.8205V35.4916Z" fill="white"/>
<path d="M30.3906 31.6937C29.8739 31.6937 29.3783 31.8937 29.013 32.2499C28.6476 32.606 28.4424 33.089 28.4424 33.5927C28.4424 34.0963 28.6476 34.5793 29.013 34.9354C29.3783 35.2916 29.8739 35.4916 30.3906 35.4916H38.1832C38.6999 35.4916 39.1955 35.2916 39.5608 34.9354C39.9262 34.5793 40.1314 34.0963 40.1314 33.5927C40.1314 33.089 39.9262 32.606 39.5608 32.2499C39.1955 31.8937 38.6999 31.6937 38.1832 31.6937H30.3906Z" fill="white"/>
<path d="M30.3906 39.2897C29.8739 39.2897 29.3783 39.4897 29.013 39.8459C28.6476 40.202 28.4424 40.685 28.4424 41.1887C28.4424 41.6923 28.6476 42.1753 29.013 42.5315C29.3783 42.8876 29.8739 43.0877 30.3906 43.0877H38.1832C38.6999 43.0877 39.1955 42.8876 39.5608 42.5315C39.9262 42.1753 40.1314 41.6923 40.1314 41.1887C40.1314 40.685 39.9262 40.202 39.5608 39.8459C39.1955 39.4897 38.6999 39.2897 38.1832 39.2897H30.3906Z" fill="white"/>
<path d="M28.4424 48.7847C28.4424 48.281 28.6476 47.798 29.013 47.4419C29.3783 47.0858 29.8739 46.8857 30.3906 46.8857H38.1832C38.6999 46.8857 39.1955 47.0858 39.5608 47.4419C39.9262 47.798 40.1314 48.281 40.1314 48.7847C40.1314 49.2883 39.9262 49.7713 39.5608 50.1275C39.1955 50.4836 38.6999 50.6837 38.1832 50.6837H30.3906C29.8739 50.6837 29.3783 50.4836 29.013 50.1275C28.6476 49.7713 28.4424 49.2883 28.4424 48.7847Z" fill="white"/>
<path fill-rule="evenodd" clip-rule="evenodd" d="M26.4944 24.0978C24.9444 24.0978 23.4578 24.698 22.3617 25.7664C21.2657 26.8348 20.6499 28.2838 20.6499 29.7947V52.5826C20.6499 54.0936 21.2657 55.5426 22.3617 56.611C23.4578 57.6794 24.9444 58.2796 26.4944 58.2796H57.6652C59.2152 58.2796 60.7018 57.6794 61.7979 56.611C62.8939 55.5426 63.5097 54.0936 63.5097 52.5826V29.7947C63.5097 28.2838 62.8939 26.8348 61.7979 25.7664C60.7018 24.698 59.2152 24.0978 57.6652 24.0978H26.4944ZM57.6652 27.8958H26.4944C25.9777 27.8958 25.4822 28.0958 25.1169 28.452C24.7515 28.8081 24.5462 29.2911 24.5462 29.7947V52.5826C24.5462 53.0863 24.7515 53.5693 25.1169 53.9254C25.4822 54.2815 25.9777 54.4816 26.4944 54.4816H57.6652C58.1819 54.4816 58.6774 54.2815 59.0427 53.9254C59.4081 53.5693 59.6133 53.0863 59.6133 52.5826V29.7947C59.6133 29.2911 59.4081 28.8081 59.0427 28.452C58.6774 28.0958 58.1819 27.8958 57.6652 27.8958Z" fill="white"/>
</svg>
